<?xml version="1.0" encoding="utf-8"?>
<!-- Generator: Adobe Illustrator 16.0.0, SVG Export Plug-In . SVG Version: 6.00 Build 0)  -->
<!DOCTYPE svg PUBLIC "-//W3C//DTD SVG 1.1//EN" "http://www.w3.org/Graphics/SVG/1.1/DTD/svg11.dtd">
<svg version="1.1" id="Laag_1" xmlns="http://www.w3.org/2000/svg" xmlns:xlink="http://www.w3.org/1999/xlink" x="0px" y="0px"
	 width="140px" height="59px" viewBox="0 0 140 59" enable-background="new 0 0 140 59" xml:space="preserve">
<g>
	<path fill="#F07E25" d="M93.37,28.912c0,14.696,11.956,26.651,26.651,26.651V54.18c-14.241,0-24.777-11.556-24.777-25.268
		c0-10.963,9.012-21.843,22.329-21.843c12.153,0,19.146,9.891,19.146,19.639c0,8.653-8.51,15.694-17.163,15.694
		c-7.67,0-13.908-6.24-13.908-13.909c0-6.783,5.518-12.302,12.301-12.302c5.986,0,10.855,4.87,10.855,10.855h4.32
		c0-8.368-6.808-15.176-15.176-15.176c-9.165,0-16.621,7.457-16.621,16.622c0,10.052,8.177,18.229,18.229,18.229
		c11.036,0,20.015-8.979,20.015-20.015c0-12.13-9.869-21.998-21.998-21.999C104.228,4.709,93.37,15.567,93.37,28.912z"/>
	<path fill="#FFFFFF" d="M118.472,22.912h0.82v-3.755h-0.82c-5.393,0-9.777,4.386-9.777,9.778c0,5.391,4.385,9.777,9.777,9.777h0.82
		v-3.755h-0.82c-3.321,0-6.022-2.702-6.022-6.022C112.449,25.614,115.15,22.912,118.472,22.912z"/>
	<path fill="#FFFFFF" d="M16.348,40.883c-0.901,0.484-3.048,0.866-5.23,0.866C3.775,41.749,0,36.38,0,29.314
		s3.775-12.434,10.979-12.434c2.459,0,4.468,0.658,5.369,1.004l-0.243,3.983c-0.901-0.451-2.321-1.316-4.572-1.316
		c-3.672,0-6.823,2.494-6.823,8.763c0,6.27,3.151,8.763,6.823,8.763c2.147,0,3.567-0.52,4.572-1.247L16.348,40.883z"/>
	<path fill="#FFFFFF" d="M28.539,31.704l-7.134-14.477h4.779l4.71,9.663l4.434-9.663h4.779l-7.135,14.581v9.595h-4.433V31.704z"/>
	<path fill="#FFFFFF" d="M44.822,36.726c0.866,0.555,2.771,1.49,5.126,1.49c1.94,0,3.671-1.074,3.671-3.498
		c0-1.731-1.004-2.494-3.152-3.671l-2.251-1.248c-2.389-1.316-3.949-3.221-3.949-6.338c0-4.33,3.568-6.581,7.621-6.581
		c2.562,0,4.363,0.658,5.057,0.866l-0.208,3.706c-1.074-0.416-2.494-1.039-4.538-1.039c-2.216,0-3.359,1.178-3.359,2.84
		c0,1.801,1.212,2.493,2.563,3.255L54,27.964c2.84,1.593,4.19,3.117,4.19,6.511c0,4.919-3.498,7.274-8.104,7.274
		c-2.424,0-4.294-0.347-5.507-1.074L44.822,36.726z"/>
	<path fill="#FFFFFF" d="M69.516,29.314c0-6.649,2.251-9.04,5.056-9.04c2.807,0,5.057,2.39,5.057,9.04c0,6.65-2.25,9.04-5.057,9.04
		C71.768,38.354,69.516,35.965,69.516,29.314z M64.944,29.314c0,8.693,4.606,12.435,9.628,12.435c5.022,0,9.629-3.741,9.629-12.435
		s-4.606-12.434-9.629-12.434C69.55,16.881,64.944,20.621,64.944,29.314z"/>
</g>
</svg>
